<svg xmlns="http://www.w3.org/2000/svg" viewBox="0 0 132.292 132.292" height="36" width="36"><path d="M66.146 0C29.619 0 0 30.363 0 67.82c0 29.964 18.953 55.387 45.235 64.354 3.305.628 4.519-1.47 4.519-3.262 0-1.616-.061-6.96-.09-12.627-18.402 4.103-22.285-8.002-22.285-8.002-3.009-7.838-7.344-9.924-7.344-9.924-6.001-4.209.452-4.122.452-4.122 6.643.478 10.14 6.99 10.14 6.99 5.9 10.367 15.474 7.37 19.249 5.636.594-4.382 2.307-7.375 4.2-9.068-14.693-1.714-30.137-7.53-30.137-33.518 0-7.403 2.584-13.454 6.815-18.204-.687-1.708-2.95-8.606.642-17.948 0 0 5.554-1.821 18.194 6.953 5.276-1.502 10.935-2.256 16.556-2.283 5.621.027 11.284.78 16.57 2.283 12.625-8.774 18.172-6.953 18.172-6.953 3.6 9.342 1.336 16.24.65 17.948 4.24 4.75 6.806 10.801 6.806 18.204 0 26.05-15.474 31.785-30.203 33.464 2.373 2.104 4.487 6.232 4.487 12.56 0 9.074-.076 16.377-.076 18.61 0 1.807 1.19 3.92 4.542 3.255 26.269-8.977 45.198-34.39 45.198-64.345C132.292 30.363 102.677 0 66.146 0" fill="#fff" fill-rule="evenodd"/><path d="M25.053 97.375c-.145.338-.662.439-1.133.208-.481-.223-.75-.682-.594-1.02.142-.346.66-.443 1.139-.211.48.22.754.685.588 1.023M27.733 100.44c-.316.299-.933.16-1.35-.314-.435-.473-.515-1.106-.195-1.41.326-.3.924-.16 1.356.314.434.478.518 1.105.189 1.41M30.34 104.345c-.405.29-1.068.019-1.478-.584-.405-.605-.405-1.328.01-1.618.41-.29 1.063-.028 1.479.57.404.613.404 1.336-.01 1.632M33.913 108.119c-.362.41-1.134.3-1.7-.261-.578-.546-.739-1.322-.376-1.732.368-.41 1.144-.295 1.714.26.574.545.748 1.327.362 1.733M38.842 110.31c-.16.531-.903.771-1.652.546-.749-.233-1.238-.854-1.087-1.39.156-.535.903-.787 1.657-.545.747.23 1.238.849 1.082 1.389M44.256 110.716c.019.559-.617 1.023-1.403 1.033-.79.018-1.432-.435-1.44-.985 0-.565.622-1.023 1.411-1.038.787-.015 1.432.435 1.432.99M49.293 109.837c.094.545-.452 1.105-1.233 1.255-.768.144-1.479-.194-1.576-.734-.096-.56.46-1.12 1.227-1.264.783-.14 1.482.188 1.582.743" fill="#fff"/></svg>